<svg width="55" height="61" viewBox="0 0 55 61" fill="none" xmlns="http://www.w3.org/2000/svg">
<path d="M3.04721 36.4544C2.47253 36.4564 1.90909 36.2952 1.42235 35.9897C0.935611 35.6841 0.545552 35.2467 0.29749 34.7282C0.0494282 34.2098 -0.0464539 33.6316 0.0209838 33.0608C0.0884215 32.49 0.316411 31.9501 0.678463 31.5038L30.7433 0.524236C30.9688 0.26389 31.2761 0.0879598 31.6148 0.0253217C31.9535 -0.0373165 32.3034 0.0170595 32.6071 0.179525C32.9108 0.34199 33.1502 0.60289 33.2861 0.919401C33.422 1.23591 33.4463 1.58923 33.355 1.92135L27.5242 20.2054C27.3523 20.6656 27.2945 21.1606 27.3559 21.648C27.4173 22.1355 27.5961 22.6007 27.8768 23.0039C28.1575 23.4071 28.5318 23.7362 28.9676 23.9629C29.4033 24.1896 29.8876 24.3072 30.3788 24.3056H51.6368C52.2115 24.3036 52.7749 24.4648 53.2617 24.7703C53.7484 25.0759 54.1385 25.5133 54.3865 26.0318C54.6346 26.5502 54.7305 27.1284 54.663 27.6992C54.5956 28.27 54.3676 28.8099 54.0055 29.2562L23.9407 60.2358C23.7152 60.4961 23.4079 60.672 23.0692 60.7347C22.7305 60.7973 22.3806 60.7429 22.0769 60.5805C21.7732 60.418 21.5338 60.1571 21.3979 59.8406C21.262 59.5241 21.2377 59.1708 21.329 58.8387L27.1598 40.5547C27.3317 40.0944 27.3895 39.5994 27.3281 39.112C27.2667 38.6245 27.0879 38.1593 26.8072 37.7561C26.5265 37.3529 26.1522 37.0239 25.7164 36.7971C25.2807 36.5704 24.7964 36.4528 24.3052 36.4544H3.04721Z" fill="#A78BFA"/>
<path d="M13.6944 39.4366C13.3316 39.5765 12.9367 39.6108 12.5555 39.5355C12.1743 39.4603 11.8225 39.2786 11.541 39.0115C11.2595 38.7445 11.0598 38.4031 10.9651 38.027C10.8705 37.6508 10.8847 37.2554 11.0063 36.8867L22.5612 10.1044C22.6411 9.88585 22.7931 9.70082 22.9921 9.57965C23.1911 9.45848 23.4254 9.40837 23.6565 9.43755C23.8876 9.46674 24.1017 9.57348 24.2637 9.74025C24.4258 9.90702 24.5261 10.1239 24.5482 10.3553L25.2599 23.289C25.2619 23.6206 25.3445 23.9466 25.5005 24.2391C25.6566 24.5316 25.8815 24.7819 26.1559 24.9684C26.4303 25.1548 26.7461 25.272 27.0761 25.3099C27.4061 25.3477 27.7406 25.305 28.0507 25.1856L41.4894 20.0587C41.8522 19.9189 42.2472 19.8846 42.6284 19.9599C43.0096 20.0351 43.3614 20.2168 43.6429 20.4838C43.9244 20.7509 44.1241 21.0923 44.2187 21.4684C44.3134 21.8445 44.2991 22.2399 44.1776 22.6086L32.6227 49.391C32.5428 49.6095 32.3908 49.7945 32.1917 49.9157C31.9927 50.0369 31.7584 50.087 31.5274 50.0578C31.2963 50.0286 31.0822 49.9219 30.9201 49.7551C30.7581 49.5883 30.6578 49.3714 30.6356 49.14L29.924 36.2064C29.922 35.8748 29.8394 35.5487 29.6833 35.2562C29.5273 34.9637 29.3024 34.7135 29.028 34.527C28.7536 34.3405 28.4378 34.2233 28.1078 34.1855C27.7777 34.1477 27.4433 34.1903 27.1331 34.3098L13.6944 39.4366Z" fill="#7C3AED"/>
</svg>
